<mxfile host="app.diagrams.net" modified="2022-08-17T09:45:55.649Z" agent="5.0 (Macintosh)" etag="Krhudru0OlddxOucc-rN" version="20.1.3" type="github">
  <diagram id="EjsnJG6Ybaxj8_itxwH3" name="第 1 页">
    <mxGraphModel dx="1954" dy="667" grid="1" gridSize="10" guides="1" tooltips="1" connect="1" arrows="1" fold="1" page="1" pageScale="1" pageWidth="827" pageHeight="1169" math="0" shadow="0">
      <root>
        <mxCell id="0" />
        <mxCell id="1" parent="0" />
        <mxCell id="ssGUfMZIO7WxVPuY8eG7-1" value="" style="rounded=0;whiteSpace=wrap;html=1;shadow=1;fontSize=12;" vertex="1" parent="1">
          <mxGeometry x="-10" y="330" width="779" height="320" as="geometry" />
        </mxCell>
        <mxCell id="ssGUfMZIO7WxVPuY8eG7-2" value="&lt;div style=&quot;font-size: 14px;&quot;&gt;自动驾驶&lt;/div&gt;&lt;div style=&quot;font-size: 14px;&quot;&gt;测试数据&lt;/div&gt;" style="rounded=1;whiteSpace=wrap;html=1;perimeterSpacing=2;fontSize=14;shadow=1;fillColor=#fad7ac;strokeColor=#b46504;" vertex="1" parent="1">
          <mxGeometry x="354" y="200" width="120" height="60" as="geometry" />
        </mxCell>
        <mxCell id="ssGUfMZIO7WxVPuY8eG7-3" value="" style="endArrow=block;html=1;rounded=0;fontSize=12;endFill=1;strokeWidth=5;exitX=0.5;exitY=1;exitDx=0;exitDy=0;shadow=1;" edge="1" parent="1" source="ssGUfMZIO7WxVPuY8eG7-2">
          <mxGeometry width="50" height="50" relative="1" as="geometry">
            <mxPoint x="474" y="290" as="sourcePoint" />
            <mxPoint x="414" y="330" as="targetPoint" />
            <Array as="points" />
          </mxGeometry>
        </mxCell>
        <mxCell id="ssGUfMZIO7WxVPuY8eG7-4" style="rounded=0;orthogonalLoop=1;jettySize=auto;html=1;exitX=0;exitY=0.5;exitDx=0;exitDy=0;shadow=1;fontSize=12;endArrow=oval;endFill=1;strokeWidth=2;edgeStyle=isometricEdgeStyle;elbow=vertical;" edge="1" parent="1" source="ssGUfMZIO7WxVPuY8eG7-5">
          <mxGeometry relative="1" as="geometry">
            <mxPoint x="424" y="290" as="targetPoint" />
            <Array as="points">
              <mxPoint x="484" y="290" />
            </Array>
          </mxGeometry>
        </mxCell>
        <mxCell id="ssGUfMZIO7WxVPuY8eG7-5" value="包含每一段测试路程的&lt;b&gt;所属区域，线路，日期，交通周期以及自动驾驶系统版本号&lt;/b&gt;信息" style="shape=document;whiteSpace=wrap;html=1;boundedLbl=1;shadow=1;fontSize=12;align=left;sketch=0;gradientColor=none;" vertex="1" parent="1">
          <mxGeometry x="524" y="220" width="130" height="90" as="geometry" />
        </mxCell>
        <mxCell id="ssGUfMZIO7WxVPuY8eG7-7" value="&lt;div&gt;获取自动驾驶&lt;/div&gt;&lt;div&gt;&lt;b&gt;测试接管&lt;/b&gt;信息&lt;br&gt;&lt;/div&gt;" style="rounded=1;whiteSpace=wrap;html=1;shadow=1;fontSize=12;fillColor=#d0cee2;strokeColor=#56517e;" vertex="1" parent="1">
          <mxGeometry x="10" y="396.19" width="120" height="60" as="geometry" />
        </mxCell>
        <mxCell id="ssGUfMZIO7WxVPuY8eG7-8" value="&lt;div&gt;获取自动驾驶&lt;/div&gt;&lt;div&gt;&lt;b&gt;测试里程&lt;/b&gt;信息&lt;/div&gt;" style="rounded=1;whiteSpace=wrap;html=1;shadow=1;fontSize=12;fillColor=#d0cee2;strokeColor=#56517e;" vertex="1" parent="1">
          <mxGeometry x="10" y="501.19" width="120" height="60" as="geometry" />
        </mxCell>
        <mxCell id="ssGUfMZIO7WxVPuY8eG7-9" value="&lt;div&gt;计算道路级别&lt;/div&gt;&lt;div&gt;MPI (Miles per Intervetion)&lt;/div&gt;" style="rounded=1;whiteSpace=wrap;html=1;shadow=1;fontSize=12;fillColor=#bac8d3;strokeColor=#23445d;" vertex="1" parent="1">
          <mxGeometry x="360" y="443.69" width="120" height="60" as="geometry" />
        </mxCell>
        <mxCell id="ssGUfMZIO7WxVPuY8eG7-15" value="&lt;div&gt;根据社会车辆相对于自车的位置进行密度，速度估计&lt;/div&gt;" style="rounded=1;whiteSpace=wrap;html=1;shadow=1;fontSize=12;align=left;fillColor=#fad9d5;strokeColor=#ae4132;" vertex="1" parent="1">
          <mxGeometry x="540" y="480" width="150" height="60" as="geometry" />
        </mxCell>
        <mxCell id="ssGUfMZIO7WxVPuY8eG7-18" value="" style="endArrow=block;html=1;rounded=0;fontSize=12;endFill=1;strokeWidth=5;exitX=0.5;exitY=1;exitDx=0;exitDy=0;shadow=1;" edge="1" parent="1">
          <mxGeometry width="50" height="50" relative="1" as="geometry">
            <mxPoint x="419.5" y="650" as="sourcePoint" />
            <mxPoint x="419.5" y="718" as="targetPoint" />
            <Array as="points" />
          </mxGeometry>
        </mxCell>
        <mxCell id="ssGUfMZIO7WxVPuY8eG7-19" value="&lt;div&gt;时空车道级&lt;/div&gt;&lt;div&gt;交通流量数据库&lt;/div&gt;" style="rounded=1;whiteSpace=wrap;html=1;perimeterSpacing=2;fontSize=14;shadow=1;fillColor=#b0e3e6;strokeColor=#0e8088;" vertex="1" parent="1">
          <mxGeometry x="360" y="720" width="120" height="60" as="geometry" />
        </mxCell>
        <mxCell id="ssGUfMZIO7WxVPuY8eG7-20" value="&lt;div&gt;1. 处理时间间隔&lt;/div&gt;&lt;div&gt;2. 位置地图信息&lt;/div&gt;" style="shape=document;whiteSpace=wrap;html=1;boundedLbl=1;shadow=1;fontSize=12;align=center;" vertex="1" parent="1">
          <mxGeometry x="200" y="696" width="108" height="70" as="geometry" />
        </mxCell>
        <mxCell id="ssGUfMZIO7WxVPuY8eG7-21" style="rounded=0;orthogonalLoop=1;jettySize=auto;html=1;exitX=1;exitY=0.25;exitDx=0;exitDy=0;shadow=1;fontSize=12;endArrow=oval;endFill=1;strokeWidth=2;edgeStyle=isometricEdgeStyle;elbow=vertical;" edge="1" parent="1" source="ssGUfMZIO7WxVPuY8eG7-20">
          <mxGeometry relative="1" as="geometry">
            <mxPoint x="412" y="686" as="targetPoint" />
            <mxPoint x="542" y="391" as="sourcePoint" />
            <Array as="points">
              <mxPoint x="342" y="696" />
            </Array>
          </mxGeometry>
        </mxCell>
        <mxCell id="ssGUfMZIO7WxVPuY8eG7-24" value="&lt;div&gt;道路坐标信息&lt;/div&gt;" style="rounded=1;whiteSpace=wrap;html=1;shadow=1;fontSize=12;fillColor=#bac8d3;strokeColor=#23445d;" vertex="1" parent="1">
          <mxGeometry x="360" y="525" width="120" height="60" as="geometry" />
        </mxCell>
        <mxCell id="ssGUfMZIO7WxVPuY8eG7-32" value="&lt;div&gt;城市&lt;/div&gt;&lt;div&gt;区域&lt;/div&gt;" style="rounded=1;whiteSpace=wrap;html=1;sketch=0;fillColor=#647687;strokeColor=#314354;fontColor=#ffffff;verticalAlign=top;" vertex="1" parent="1">
          <mxGeometry x="200" y="384.31" width="40" height="38.5" as="geometry" />
        </mxCell>
        <mxCell id="ssGUfMZIO7WxVPuY8eG7-37" value="&lt;div&gt;1. 指定聚合纬度&lt;/div&gt;&lt;div&gt;2. 指定筛选条件&lt;br&gt;&lt;/div&gt;" style="shape=document;whiteSpace=wrap;html=1;boundedLbl=1;shadow=1;fontSize=12;align=center;" vertex="1" parent="1">
          <mxGeometry x="200" y="515" width="108" height="70" as="geometry" />
        </mxCell>
        <mxCell id="ssGUfMZIO7WxVPuY8eG7-41" style="rounded=0;orthogonalLoop=1;jettySize=auto;html=1;shadow=1;fontSize=12;endArrow=oval;endFill=1;strokeWidth=2;elbow=vertical;exitX=0.5;exitY=0;exitDx=0;exitDy=0;" edge="1" parent="1" source="ssGUfMZIO7WxVPuY8eG7-37">
          <mxGeometry relative="1" as="geometry">
            <mxPoint x="270" y="480" as="targetPoint" />
            <mxPoint x="230" y="585.69" as="sourcePoint" />
          </mxGeometry>
        </mxCell>
        <mxCell id="ssGUfMZIO7WxVPuY8eG7-44" value="&lt;div&gt;系统&lt;/div&gt;&lt;div&gt;版本&lt;/div&gt;" style="rounded=1;whiteSpace=wrap;html=1;sketch=0;fillColor=#647687;strokeColor=#314354;fontColor=#ffffff;verticalAlign=top;" vertex="1" parent="1">
          <mxGeometry x="246" y="384.31" width="40" height="38.5" as="geometry" />
        </mxCell>
        <mxCell id="ssGUfMZIO7WxVPuY8eG7-45" value="&lt;div&gt;时间&lt;/div&gt;&lt;div&gt;范围&lt;/div&gt;" style="rounded=1;whiteSpace=wrap;html=1;sketch=0;fillColor=#647687;strokeColor=#314354;fontColor=#ffffff;verticalAlign=top;" vertex="1" parent="1">
          <mxGeometry x="292" y="384.31" width="40" height="38.5" as="geometry" />
        </mxCell>
        <mxCell id="ssGUfMZIO7WxVPuY8eG7-46" value="&lt;div&gt;交通&lt;/div&gt;&lt;div&gt;周期&lt;/div&gt;" style="rounded=1;whiteSpace=wrap;html=1;sketch=0;fillColor=#647687;strokeColor=#314354;fontColor=#ffffff;verticalAlign=top;" vertex="1" parent="1">
          <mxGeometry x="200" y="429.56" width="40" height="38.5" as="geometry" />
        </mxCell>
        <mxCell id="ssGUfMZIO7WxVPuY8eG7-47" value="&lt;div&gt;固定&lt;/div&gt;&lt;div&gt;路线&lt;/div&gt;" style="rounded=1;whiteSpace=wrap;html=1;sketch=0;fillColor=#647687;strokeColor=#314354;fontColor=#ffffff;verticalAlign=top;" vertex="1" parent="1">
          <mxGeometry x="246" y="429.56" width="40" height="38.5" as="geometry" />
        </mxCell>
        <mxCell id="ssGUfMZIO7WxVPuY8eG7-48" value="&lt;div&gt;分段&lt;/div&gt;&lt;div&gt;道路&lt;/div&gt;" style="rounded=1;whiteSpace=wrap;html=1;sketch=0;fillColor=#d80073;strokeColor=#A50040;fontColor=#ffffff;verticalAlign=top;" vertex="1" parent="1">
          <mxGeometry x="292" y="429.56" width="40" height="38.5" as="geometry" />
        </mxCell>
        <mxCell id="ssGUfMZIO7WxVPuY8eG7-50" style="rounded=0;orthogonalLoop=1;jettySize=auto;html=1;exitX=1;exitY=0.5;exitDx=0;exitDy=0;shadow=1;fontSize=12;endArrow=block;endFill=1;strokeWidth=2;entryX=0;entryY=0.5;entryDx=0;entryDy=0;edgeStyle=orthogonalEdgeStyle;" edge="1" parent="1" source="ssGUfMZIO7WxVPuY8eG7-7" target="ssGUfMZIO7WxVPuY8eG7-9">
          <mxGeometry relative="1" as="geometry">
            <mxPoint x="140" y="541.19" as="sourcePoint" />
            <mxPoint x="340" y="488.69" as="targetPoint" />
            <Array as="points">
              <mxPoint x="170" y="426.69" />
              <mxPoint x="170" y="473.69" />
            </Array>
          </mxGeometry>
        </mxCell>
        <mxCell id="ssGUfMZIO7WxVPuY8eG7-55" style="edgeStyle=orthogonalEdgeStyle;rounded=0;orthogonalLoop=1;jettySize=auto;html=1;shadow=1;fontSize=12;endArrow=block;endFill=1;strokeWidth=2;" edge="1" parent="1" source="ssGUfMZIO7WxVPuY8eG7-8" target="ssGUfMZIO7WxVPuY8eG7-9">
          <mxGeometry relative="1" as="geometry">
            <mxPoint x="590" y="575.69" as="sourcePoint" />
            <mxPoint x="414" y="505.69" as="targetPoint" />
            <Array as="points">
              <mxPoint x="170" y="531.69" />
              <mxPoint x="170" y="475.69" />
            </Array>
          </mxGeometry>
        </mxCell>
      </root>
    </mxGraphModel>
  </diagram>
</mxfile>
